<svg width="129" height="100" viewBox="0 0 129 100" fill="none" xmlns="http://www.w3.org/2000/svg">
<path d="M64.9777 78.0014H71.1675C75.8556 78.0014 80.031 77.2952 83.6936 75.8828C87.3562 74.4703 90.4328 72.5283 92.9233 70.0565C95.4872 67.5847 97.4283 64.654 98.7103 61.2994C100.102 57.839 100.761 54.096 100.761 50.0353C100.761 45.9746 100.065 42.3376 98.7103 38.8771C97.3185 35.4167 95.3773 32.4506 92.7768 29.9788C90.2863 27.5071 87.2097 25.565 83.5471 24.1525C79.8845 22.7401 75.7457 22.0339 71.1675 22.0339H64.9777V78.0014ZM38.021 0H77.9433C85.0121 0 91.6048 1.37712 97.758 4.09605C103.984 6.85028 109.405 10.5226 113.983 15.113C118.671 19.6328 122.334 24.9294 125.008 31.0381C127.681 37.041 129 43.3616 129 50C129 56.6384 127.681 62.8531 125.008 68.9619C122.444 74.9647 118.818 80.2966 114.13 84.887C109.552 89.4774 104.131 93.1497 97.9045 95.904C91.7513 98.6582 85.122 100 77.9433 100H38.021V0Z" fill="#0083F0"/>
<path d="M0 39.7959C0 37.7087 0.398896 35.7607 1.23292 33.917C2.06695 32.0037 3.19105 30.3339 4.64153 28.9425C6.092 27.551 7.76005 26.4726 9.68193 25.6725C11.6763 24.8724 13.7795 24.4898 15.9553 24.4898C18.131 24.4898 20.1617 24.8724 22.0835 25.6725C24.0779 26.4726 25.8185 27.551 27.269 28.9425C28.7195 30.3339 29.8436 32.0037 30.6776 33.917C31.5116 35.7607 31.9105 37.7087 31.9105 39.7959C31.9105 41.8831 31.5116 43.9007 30.6776 45.814C29.8436 47.6577 28.7195 49.2579 27.269 50.6493C25.8185 52.0408 24.0779 53.1192 22.0835 53.9193C20.1617 54.7194 18.131 55.102 15.9553 55.102C13.7795 55.102 11.6763 54.7194 9.68193 53.9193C7.76005 53.1192 6.092 52.0408 4.64153 50.6493C3.19105 49.2579 2.06695 47.6577 1.23292 45.814C0.398896 43.9007 0 41.8831 0 39.7959Z" fill="#0083F0"/>
<path d="M0 84.3537C0 82.2202 0.398896 80.2288 1.23292 78.3442C2.06695 76.3884 3.19105 74.6815 4.64153 73.2591C6.092 71.8367 7.76005 70.7344 9.68193 69.9165C11.6763 69.0986 13.7795 68.7075 15.9553 68.7075C18.131 68.7075 20.1617 69.0986 22.0835 69.9165C24.0779 70.7344 25.8185 71.8367 27.269 73.2591C28.7195 74.6815 29.8436 76.3884 30.6776 78.3442C31.5116 80.2288 31.9105 82.2202 31.9105 84.3537C31.9105 86.4873 31.5116 88.5498 30.6776 90.5056C29.8436 92.3902 28.7195 94.026 27.269 95.4484C25.8185 96.8707 24.0779 97.9731 22.0835 98.791C20.1617 99.6088 18.131 100 15.9553 100C13.7795 100 11.6763 99.6088 9.68193 98.791C7.76005 97.9731 6.092 96.8707 4.64153 95.4484C3.19105 94.026 2.06695 92.3902 1.23292 90.5056C0.398896 88.5498 0 86.4873 0 84.3537Z" fill="#0083F0"/>
</svg>
